<svg xmlns="http://www.w3.org/2000/svg" viewBox="0 0 512.001 512.001" width="512" height="512"><path d="M404.054 383.278H198.553l-12.701-50.805h268.561l57.588-230.353H128.264l-20.241-80.965H0v30.159h84.475l83.292 333.168c-24.247 5.207-42.482 26.8-42.482 52.58 0 29.656 24.127 53.783 53.784 53.783s53.784-24.128 53.784-53.783a53.441 53.441 0 00-5.48-23.625H355.75a53.441 53.441 0 00-5.48 23.625c0 29.656 24.128 53.783 53.784 53.783s53.784-24.128 53.784-53.783c-.001-29.656-24.129-53.784-53.784-53.784zM135.803 132.279h337.57l-42.509 170.034H178.312l-42.509-170.034zm43.266 328.407c-13.027 0-23.625-10.598-23.625-23.624 0-13.027 10.598-23.625 23.625-23.625s23.625 10.598 23.625 23.625c0 13.026-10.598 23.624-23.625 23.624zm224.985 0c-13.027 0-23.625-10.598-23.625-23.624 0-13.027 10.598-23.625 23.625-23.625s23.625 10.598 23.625 23.625c-.002 13.026-10.599 23.624-23.625 23.624z" data-original="#000000" class="active-path" data-old_color="#000000" fill="#FFF"/></svg>