<svg version="1.1" id="Capa_1" xmlns="http://www.w3.org/2000/svg" x="0" y="0" viewBox="0 0 496 84.8" xml:space="preserve"><style>.st3{fill:#595a5b}.st4{fill:#3b3d3f}</style><circle cx="263.2" cy="42.4" r="41.6" fill="#ef9122"/><path d="M221.6 42.4C221.6 19.2 240 .8 263.2.8s41.6 18.4 41.6 41.6S286.4 84 263.2 84" fill="#f26e21"/><path d="M234.4 12.8c16-16 42.4-16 58.4 0s16 42.4 0 58.4" fill="#f44500"/><path class="st3" d="M22.4 3.2H0v78.4h22.4c12 0 20.8-3.2 28-8.8 8.8-7.2 14.4-18.4 14.4-30.4C64.8 19.2 48 3.2 22.4 3.2zm18.4 59.2c-4.8 4-11.2 6.4-20.8 6.4h-4.8v-52h4c9.6 0 16 1.6 20.8 6.4 5.6 4.8 8.8 12 8.8 19.2.8 7.2-2.4 15.2-8 20z"/><path id="SVGCleanerId_0" class="st3" d="M72 3.2h15.2v78.4H72z"/><path class="st3" d="M125.6 33.6c-9.6-3.2-12-5.6-12-9.6 0-4.8 4.8-8.8 11.2-8.8 4.8 0 8.8 1.6 12.8 6.4l8-10.4c-6.4-5.6-14.4-8.8-23.2-8.8-13.6 0-24.8 9.6-24.8 22.4 0 11.2 4.8 16 19.2 21.6 6.4 2.4 8.8 3.2 10.4 4.8 3.2 1.6 4.8 4.8 4.8 8 0 6.4-4.8 11.2-12 11.2s-13.6-4-16.8-10.4l-9.6 9.6c7.2 10.4 16 15.2 27.2 15.2 16 0 27.2-10.4 27.2-25.6 0-13.6-4.8-19.2-22.4-25.6z"/><path class="st4" d="M152.8 42.4c0 23.2 18.4 40.8 41.6 40.8 6.4 0 12-1.6 19.2-4.8V60c-6.4 6.4-12 8.8-18.4 8.8-15.2 0-26.4-11.2-26.4-27.2 0-15.2 11.2-27.2 25.6-27.2 7.2 0 12.8 2.4 19.2 8.8V4.8c-6.4-3.2-12-4.8-19.2-4.8-22.4 1.6-41.6 20-41.6 42.4z"/><path d="M339.2 56L318.4 3.2h-16.8L334.4 84h8.8l34.4-80.8h-16.8zM384 81.6h44V68.8h-28V47.2h27.2V33.6H400V16.8h28V3.2h-44z"/><path class="st3" d="M471.2 48.8c12-2.4 18.4-10.4 18.4-22.4 0-14.4-10.4-23.2-28-23.2h-23.2v78.4h15.2V50.4h2.4l21.6 31.2H496l-24.8-32.8zm-12.8-9.6h-4.8v-24h4.8c9.6 0 15.2 4 15.2 12s-5.6 12-15.2 12zm-436-36H0v78.4h22.4c12 0 20.8-3.2 28-8.8 8.8-7.2 14.4-18.4 14.4-30.4C64.8 19.2 48 3.2 22.4 3.2zm18.4 59.2c-4.8 4-11.2 6.4-20.8 6.4h-4.8v-52h4c9.6 0 16 1.6 20.8 6.4 5.6 4.8 8.8 12 8.8 19.2.8 7.2-2.4 15.2-8 20z"/><path id="SVGCleanerId_0_1_" class="st3" d="M72 3.2h15.2v78.4H72z"/><path class="st3" d="M125.6 33.6c-9.6-3.2-12-5.6-12-9.6 0-4.8 4.8-8.8 11.2-8.8 4.8 0 8.8 1.6 12.8 6.4l8-10.4c-6.4-5.6-14.4-8.8-23.2-8.8-13.6 0-24.8 9.6-24.8 22.4 0 11.2 4.8 16 19.2 21.6 6.4 2.4 8.8 3.2 10.4 4.8 3.2 1.6 4.8 4.8 4.8 8 0 6.4-4.8 11.2-12 11.2s-13.6-4-16.8-10.4l-9.6 9.6c7.2 10.4 16 15.2 27.2 15.2 16 0 27.2-10.4 27.2-25.6 0-13.6-4.8-19.2-22.4-25.6zm69.6 49.6c6.4 0 12-1.6 19.2-4.8V60c-6.4 6.4-12 8.8-18.4 8.8-15.2 0-26.4-11.2-26.4-27.2 0-8 3.2-14.4 8-20l-10.4-10.4c-8 7.2-13.6 18.4-13.6 30.4-.8 24 17.6 41.6 41.6 41.6z"/><path d="M471.2 48.8c12-2.4 18.4-10.4 18.4-22.4 0-14.4-10.4-23.2-28-23.2h-23.2v78.4h15.2V50.4h2.4l21.6 31.2H496l-24.8-32.8zm-12.8-9.6h-4.8v-24h4.8c9.6 0 15.2 4 15.2 12s-5.6 12-15.2 12z"/><path class="st4" d="M414.4 68.8H400V54.4l-16-16v43.2h43.2zm-57.6-57.6L339.2 56 318.4 3.2h-16.8L334.4 84h8.8l25.6-60.8z"/></svg>