<svg xmlns="http://www.w3.org/2000/svg" viewBox="0 0 15 16"><path d="M8.6 9.3C6.9 8.1 6.3 7.5 7.4 6.6S9.2 5 9.2 3.2c0-1-.6-2-1.4-2.6.5.1 1.1 0 1.6-.2.2-.1.5-.2.8-.4H5C3.9 0 1 1.2 1 3.9s3 3.4 4.1 3.3c-.4.6-.3 1.4.2 1.8.3.4.3.5-.1.5S0 9.6 0 13s6.4 3.7 8.5 1.8c1.6-1.1 1.9-3.3.8-4.9-.2-.2-.5-.4-.7-.6zM5.5 6.6C2.9 6.6 1.7.5 4.8.5c2.3-.1 4.1 6.1.7 6.1zm-.3 8.5c-2.2 0-3.3-1.1-3.3-2.7S3.4 10 6.4 10c.8.6 2.2 1.4 2.2 2.9s-1.3 2.2-3.4 2.2zM13 0v2h2v1h-2v2h-1V3h-2V2h2V0h1z" fill-rule="evenodd" clip-rule="evenodd"/></svg>