<svg xmlns="http://www.w3.org/2000/svg" viewBox="0 0 16.9 17.9"><path d="M10.8 9.9c.8.5 1.5.9 2.3 1.2.8.3 1.6.7 2.4 1.2 1.1.8 1.4.7 1.4 4.5-.6.2-1.1.3-1.7.5-3.7.7-7.6.8-11.3.4-1.3-.1-2.6-.4-3.8-.7.1-1.9.4-4.2 1.6-5 .7-.4 1.4-.7 2.1-1 .7-.3 1.5-.7 2.2-1-.2-.3-.3-.5-.5-.7-.1-.2-.4-.5-.5-.8l-.6-.9c-.4-.5-1-2.1-.3-2.7C3.9 1.9 5.6.2 7.9 0c2.4-.2 4.4 1.2 4.6 3.3-.1.5-.1 1 0 1.6.1.2.2.3.3.5.2.7.1 1.5-.4 2.1-.1.2-.3.4-.4.6-.2.4-.5.8-.7 1.2-.1.2-.3.4-.5.6zm.9-4.7c-.1-.3-.1-.7 0-1 0-2.3-1.1-3.3-3.4-3.3S4.7 2.2 5.1 5.3c-.8.3-.3 1.6 0 2.2.2.3.5.5.6.7.2.3.2.5.3.8.4.9 1.2 1.5 2.2 1.7 1.5.1 2.3-1.1 2.7-2 .1-.3.2-.6.4-1 .1-.2.3-.4.5-.5.4-.5.5-1.1.4-1.6-.3-.1-.4-.2-.5-.4zm-7.3 6.4c-.7.3-1.4.6-2.1 1-1.1.7-1.1 2.2-1.3 3.8 4.3.8 10.7 1.1 15 .1-.1-1.5 0-2.6-.8-3.3-.8-.5-1.7-.9-2.6-1.2-.9-.4-1.7-.9-2.4-1.2-1 .8-2.5.8-3.5 0-.8.1-1.6.5-2.3.8z" fill-rule="evenodd" clip-rule="evenodd" fill="#080808"/></svg>