<svg xmlns="http://www.w3.org/2000/svg" viewBox="0 0 16 16"><path d="M8 0C3.6 0 0 3.6 0 8s3.6 8 8 8 8-3.6 8-8-3.6-8-8-8zm5.2 3.9c.9 1.1 1.4 2.5 1.4 3.9-1.5-.3-3.1-.3-4.7-.1-.1-.4-.2-.8-.4-1.1 1.4-.6 2.7-1.5 3.7-2.7zm-.9-1c-.9 1.1-2.1 2-3.4 2.5C8.1 4 7.3 2.7 6.4 1.5c.5-.1 1-.2 1.6-.2 1.6 0 3.1.6 4.3 1.6zM5.1 2C6 3.2 6.9 4.5 7.6 5.8c-2 .5-4 .7-6.1.7.5-2 1.8-3.7 3.6-4.5zM1.3 8v-.2c2.4 0 4.7-.2 6.9-.8.2.3.3.7.5 1-2.4.7-4.4 2.3-5.7 4.4C1.9 11.2 1.3 9.6 1.3 8zm2.6 5.3c1.2-2 3.1-3.4 5.3-4.1.6 1.6 1.1 3.3 1.3 5-.8.3-1.7.5-2.5.5-1.5 0-2.9-.5-4.1-1.4zm7.9.2c-.3-1.6-.7-3.1-1.3-4.6 1.4-.2 2.7-.1 4.1.2-.3 1.8-1.3 3.4-2.8 4.4z" fill-rule="evenodd" clip-rule="evenodd"/></svg>