<svg xmlns="http://www.w3.org/2000/svg" viewBox="0 0 20.1 19.9"><path d="M7.1 14.9c-2.3-2.1-4.3-4.4-5.9-7.1C.7 7.1.3 6.3 0 5.4c.1-.7.3-1.3.6-2s.7-1.3 1.1-1.9C2.6.5 3.5-.2 4.3-.1c1.4.3 2.8 2.2 3.1 3.3.2.7 0 1.4-.4 2-.5.7-1 1.3-1.4 2-.3.6.3 1.5.8 2.3.6.8 1.3 1.6 2.1 2.3 1 1.1 3.2 3.1 4.5 2.4.7-.3 1.3-1.3 1.9-1.6 1.3-.6 2.7 0 4 1.2.8.8 1.4 1.6 1.1 2.4-.5 1.5-2.7 2.7-3.9 3.2-.5.2-.9.4-1.4.5-.3-.1-.7-.2-1-.4-2.4-1.2-4.7-2.7-6.6-4.6zm10.2 3.2c.7-.4 2.1-1.5 2.1-2.3 0-.7-.8-1.4-1.5-2-.6-.6-1.4-.8-2.2-.8-.9.2-1.5 1.4-2.5 1.8-1.1.5-2.3-.1-3.4-1-1.7-1.2-3.1-2.7-4.2-4.5-.5-.5-.8-1.4-.7-2.2.3-1 1.7-1.8 1.9-2.7.1-.8-.1-1.7-.7-2.2C5.5 1.5 4.7.6 4 .6 3.2.7 2.1 2 1.7 2.8c-.5.8-.8 1.7-1 2.6 2.3 5.3 8.6 11.7 14 13.9.9-.3 1.8-.7 2.6-1.2z" fill-rule="evenodd" clip-rule="evenodd" fill="#010101"/></svg>