<svg xmlns="http://www.w3.org/2000/svg" viewBox="0 0 64 20.5"><path d="M50 2l5-.9v19.4h-5V2zm8 0v18.5h5V1.1L58 2zM43 20.5h5v-14h-5v14zM8.8 8.4c-.7 0-2.2-.1-2.2-1.5 0-1.6 2.2-1.6 3-1.6 1.4 0 3.3.4 4.6.8l1.5.5h.2V2.1l-.2-.1C14.1 1.5 12.2.9 8.9.9 3.1 1.1 1 4.5 1 7.4c0 1.7.7 5.6 7.4 6.1.6 0 2.1.1 2.1 1.5 0 1.2-1.4 1.8-3.5 1.8-2.3 0-4-.6-6-1.1v4.6c2 .5 4.4.8 7.1.8 5.7 0 8.3-3.2 8.3-6.4 0-3.6-2.8-5.9-7.6-6.3zm31.1-2.2c-4.8.1-6.9 2.3-6.9 6.5v7.8h5v-6.3c0-2.5 0-3.6 3-3.7V6.3c0-.2-1.1-.1-1.1-.1zM26 6.5c-.1 0-1 2.5-3 4.9V1.1l-5 1.1v18.3h5v-5.4c2 2.3 2.4 5.4 2.4 5.4h6.4c-.6-2-3.4-7.2-3.4-7.2 2.5-3.1 3.6-6.8 3.7-6.8H26zM45.5 5C46.9 5 48 3.9 48 2.5S46.9 0 45.5 0 43 1.1 43 2.5 44.1 5 45.5 5z" fill="#b73091"/><path d="M52 1.6l3-.5v19.4h-5l2-18.9zm7.8.1L58 20.5h5V1.1l-3.2.6zM43 20.5h5v-14h-2.1l-2.9 14zM1 7.4c0 1.7.7 5.6 7.3 6.1.6 0 3 .1 3 1.5 0 1.2-2.4 1.8-4.4 1.8-2.3 0-4-.6-6-1.1v4.6c2 .5 4.4.8 7.1.8 5.7 0 8.3-3.2 8.3-6.4 0-3.6-2.8-5.9-7.6-6.3-.7 0-2.1-.1-2.1-1.5 0-1.6 2.2-1.6 3-1.6 1.4 0 3.3.4 4.6.8l1.5.5h.2V2.1l-.2-.1C14.1 1.5 12.2.9 8.9.9M33 12.5v8h5v-6.3c0-2.5 0-3.6 3-3.7V6.3c0-.1-1.1-.1-1.1-.1M18 20.5h5v-5.4c2 2.3 4.3 5.4 4.3 5.4h4.4c-.6-2-3.4-7.2-3.4-7.2 2.5-3.1 3.6-6.8 3.7-6.8h-3c-.1 0-4 2.5-6 4.9V1.5M45.5 5C46.9 5 48 3.9 48 2.5S46.9 0 45.5 0" fill="#862165"/></svg>