<svg xmlns="http://www.w3.org/2000/svg" viewBox="0 0 512 512"><path d="M511.2 159.9C503.7 77.7 445.5 18 372.6 18c-48.5 0-93 26.1-118 68-24.8-42.4-67.4-68-115.2-68C66.6 18 8.3 77.7.9 159.9c-.6 3.6-3 22.8 4.4 53.9 10.6 45 35.1 85.9 70.9 118.3L254.5 494l181.4-161.9c35.8-32.4 60.3-73.3 70.9-118.3 7.4-31.1 4.9-50.2 4.4-53.9zm-23.6 49.5c-9.7 41.1-32.1 78.5-64.9 108.2l-168.1 150-165.3-150c-32.8-29.7-55.2-67.1-64.9-108.2-7-29.5-4.1-46.2-4.1-46.3l.1-1C26.8 90 76.9 37.7 139.4 37.7c46.2 0 86.8 28.4 106.1 74l9.1 21.5 9.1-21.5c19-44.9 61.7-74 109-74 62.5 0 112.6 52.3 119.1 125.3-.1.2 2.8 16.8-4.2 46.4z" fill="#d4d4d4"/></svg>