<?xml version="1.0" encoding="utf-8"?>
<!-- Generator: Adobe Illustrator 24.1.2, SVG Export Plug-In . SVG Version: 6.00 Build 0)  -->
<svg version="1.1" id="Capa_1" xmlns="http://www.w3.org/2000/svg" xmlns:xlink="http://www.w3.org/1999/xlink" x="0px" y="0px"
	 viewBox="0 0 496 84.8" style="enable-background:new 0 0 496 84.8;" xml:space="preserve">
<style type="text/css">
	.st0{fill:#EF9122;}
	.st1{fill:#F26E21;}
	.st2{fill:#F44500;}
	.st3{fill:#595A5B;}
	.st4{fill:#3B3D3F;}
</style>
<circle class="st0" cx="263.2" cy="42.4" r="41.6"/>
<path class="st1" d="M221.6,42.4c0-23.2,18.4-41.6,41.6-41.6s41.6,18.4,41.6,41.6S286.4,84,263.2,84"/>
<path class="st2" d="M234.4,12.8c16-16,42.4-16,58.4,0s16,42.4,0,58.4"/>
<path class="st3" d="M22.4,3.2H0v78.4h22.4c12,0,20.8-3.2,28-8.8c8.8-7.2,14.4-18.4,14.4-30.4C64.8,19.2,48,3.2,22.4,3.2z
	 M40.8,62.4c-4.8,4-11.2,6.4-20.8,6.4h-4.8v-52h4c9.6,0,16,1.6,20.8,6.4c5.6,4.8,8.8,12,8.8,19.2C49.6,49.6,46.4,57.6,40.8,62.4z"/>
<rect id="SVGCleanerId_0" x="72" y="3.2" class="st3" width="15.2" height="78.4"/>
<path class="st3" d="M125.6,33.6c-9.6-3.2-12-5.6-12-9.6c0-4.8,4.8-8.8,11.2-8.8c4.8,0,8.8,1.6,12.8,6.4l8-10.4
	c-6.4-5.6-14.4-8.8-23.2-8.8c-13.6,0-24.8,9.6-24.8,22.4c0,11.2,4.8,16,19.2,21.6c6.4,2.4,8.8,3.2,10.4,4.8c3.2,1.6,4.8,4.8,4.8,8
	c0,6.4-4.8,11.2-12,11.2s-13.6-4-16.8-10.4l-9.6,9.6c7.2,10.4,16,15.2,27.2,15.2c16,0,27.2-10.4,27.2-25.6
	C148,45.6,143.2,40,125.6,33.6z"/>
<path class="st4" d="M152.8,42.4c0,23.2,18.4,40.8,41.6,40.8c6.4,0,12-1.6,19.2-4.8V60c-6.4,6.4-12,8.8-18.4,8.8
	c-15.2,0-26.4-11.2-26.4-27.2c0-15.2,11.2-27.2,25.6-27.2c7.2,0,12.8,2.4,19.2,8.8V4.8c-6.4-3.2-12-4.8-19.2-4.8
	C172,1.6,152.8,20,152.8,42.4z"/>
<polygon points="339.2,56 318.4,3.2 301.6,3.2 334.4,84 343.2,84 377.6,3.2 360.8,3.2 "/>
<polygon points="384,81.6 428,81.6 428,68.8 400,68.8 400,47.2 427.2,47.2 427.2,33.6 400,33.6 400,16.8 428,16.8 428,3.2 384,3.2 
	"/>
<g>
	<path class="st3" d="M471.2,48.8c12-2.4,18.4-10.4,18.4-22.4c0-14.4-10.4-23.2-28-23.2h-23.2v78.4h15.2V50.4h2.4l21.6,31.2H496
		L471.2,48.8z M458.4,39.2h-4.8v-24h4.8c9.6,0,15.2,4,15.2,12S468,39.2,458.4,39.2z"/>
	<path class="st3" d="M22.4,3.2H0v78.4h22.4c12,0,20.8-3.2,28-8.8c8.8-7.2,14.4-18.4,14.4-30.4C64.8,19.2,48,3.2,22.4,3.2z
		 M40.8,62.4c-4.8,4-11.2,6.4-20.8,6.4h-4.8v-52h4c9.6,0,16,1.6,20.8,6.4c5.6,4.8,8.8,12,8.8,19.2C49.6,49.6,46.4,57.6,40.8,62.4z"
		/>
</g>
<g>
	<rect id="SVGCleanerId_0_1_" x="72" y="3.2" class="st3" width="15.2" height="78.4"/>
</g>
<g>
	<path class="st3" d="M125.6,33.6c-9.6-3.2-12-5.6-12-9.6c0-4.8,4.8-8.8,11.2-8.8c4.8,0,8.8,1.6,12.8,6.4l8-10.4
		c-6.4-5.6-14.4-8.8-23.2-8.8c-13.6,0-24.8,9.6-24.8,22.4c0,11.2,4.8,16,19.2,21.6c6.4,2.4,8.8,3.2,10.4,4.8c3.2,1.6,4.8,4.8,4.8,8
		c0,6.4-4.8,11.2-12,11.2s-13.6-4-16.8-10.4l-9.6,9.6c7.2,10.4,16,15.2,27.2,15.2c16,0,27.2-10.4,27.2-25.6
		C148,45.6,143.2,40,125.6,33.6z"/>
	<path class="st3" d="M195.2,83.2c6.4,0,12-1.6,19.2-4.8V60c-6.4,6.4-12,8.8-18.4,8.8c-15.2,0-26.4-11.2-26.4-27.2
		c0-8,3.2-14.4,8-20l-10.4-10.4c-8,7.2-13.6,18.4-13.6,30.4C152.8,65.6,171.2,83.2,195.2,83.2z"/>
</g>
<path d="M471.2,48.8c12-2.4,18.4-10.4,18.4-22.4c0-14.4-10.4-23.2-28-23.2h-23.2v78.4h15.2V50.4h2.4l21.6,31.2H496L471.2,48.8z
	 M458.4,39.2h-4.8v-24h4.8c9.6,0,15.2,4,15.2,12S468,39.2,458.4,39.2z"/>
<g>
	<polygon class="st4" points="414.4,68.8 400,68.8 400,54.4 384,38.4 384,81.6 427.2,81.6 	"/>
	<polygon class="st4" points="356.8,11.2 339.2,56 318.4,3.2 301.6,3.2 334.4,84 343.2,84 368.8,23.2 	"/>
</g>
</svg>
