<?xml version="1.0" encoding="utf-8"?>
<!-- Generator: Adobe Illustrator 24.1.2, SVG Export Plug-In . SVG Version: 6.00 Build 0)  -->
<svg version="1.1" id="Layer_1" xmlns="http://www.w3.org/2000/svg" xmlns:xlink="http://www.w3.org/1999/xlink" x="0px" y="0px"
	 viewBox="0 0 16 16" style="enable-background:new 0 0 16 16;" xml:space="preserve">
<style type="text/css">
	.st0{fill-rule:evenodd;clip-rule:evenodd;}
</style>
<path id="dribbble" class="st0" d="M8,0C3.6,0,0,3.6,0,8s3.6,8,8,8s8-3.6,8-8S12.4,0,8,0z M13.2,3.9c0.9,1.1,1.4,2.5,1.4,3.9
	c-1.5-0.3-3.1-0.3-4.7-0.1C9.8,7.3,9.7,6.9,9.5,6.6C10.9,6,12.2,5.1,13.2,3.9z M12.3,2.9C11.4,4,10.2,4.9,8.9,5.4
	C8.1,4,7.3,2.7,6.4,1.5c0.5-0.1,1-0.2,1.6-0.2C9.6,1.3,11.1,1.9,12.3,2.9L12.3,2.9z M5.1,2C6,3.2,6.9,4.5,7.6,5.8
	c-2,0.5-4,0.7-6.1,0.7C2,4.5,3.3,2.8,5.1,2L5.1,2z M1.3,8c0-0.1,0-0.1,0-0.2h0C3.7,7.8,6,7.6,8.2,7c0.2,0.3,0.3,0.7,0.5,1
	C6.3,8.7,4.3,10.3,3,12.4C1.9,11.2,1.3,9.6,1.3,8L1.3,8z M3.9,13.3c1.2-2,3.1-3.4,5.3-4.1c0.6,1.6,1.1,3.3,1.3,5
	c-0.8,0.3-1.7,0.5-2.5,0.5C6.5,14.7,5.1,14.2,3.9,13.3L3.9,13.3z M11.8,13.5c-0.3-1.6-0.7-3.1-1.3-4.6c1.4-0.2,2.7-0.1,4.1,0.2
	C14.3,10.9,13.3,12.5,11.8,13.5L11.8,13.5z"/>
</svg>
