<?xml version="1.0" encoding="utf-8"?>
<!-- Generator: Adobe Illustrator 24.1.2, SVG Export Plug-In . SVG Version: 6.00 Build 0)  -->
<svg version="1.1" id="Layer_1" xmlns="http://www.w3.org/2000/svg" xmlns:xlink="http://www.w3.org/1999/xlink" x="0px" y="0px"
	 viewBox="0 0 15 16" style="enable-background:new 0 0 15 16;" xml:space="preserve">
<style type="text/css">
	.st0{fill-rule:evenodd;clip-rule:evenodd;}
</style>
<path id="google_plus" class="st0" d="M8.6,9.3C6.9,8.1,6.3,7.5,7.4,6.6S9.2,5,9.2,3.2c0-1-0.6-2-1.4-2.6c0.5,0.1,1.1,0,1.6-0.2
	C9.6,0.3,9.9,0.2,10.2,0H5C3.9,0,1,1.2,1,3.9s3,3.4,4.1,3.3C4.7,7.8,4.8,8.6,5.3,9c0,0,0,0,0,0c0.3,0.4,0.3,0.5-0.1,0.5S0,9.6,0,13
	s6.4,3.7,8.5,1.8c1.6-1.1,1.9-3.3,0.8-4.9C9.1,9.7,8.8,9.5,8.6,9.3z M5.5,6.6c-2.6,0-3.8-6.1-0.7-6.1C7.1,0.4,8.9,6.6,5.5,6.6
	L5.5,6.6z M5.2,15.1c-2.2,0-3.3-1.1-3.3-2.7S3.4,10,6.4,10c0.8,0.6,2.2,1.4,2.2,2.9S7.3,15.1,5.2,15.1L5.2,15.1z M13,0v2h2v1h-2v2
	h-1V3h-2V2h2V0H13L13,0z"/>
</svg>
