<?xml version="1.0" encoding="utf-8"?>
<!-- Generator: Adobe Illustrator 24.1.2, SVG Export Plug-In . SVG Version: 6.00 Build 0)  -->
<svg version="1.1" id="Capa_1" xmlns="http://www.w3.org/2000/svg" xmlns:xlink="http://www.w3.org/1999/xlink" x="0px" y="0px"
	 viewBox="0 0 462.4 136" style="enable-background:new 0 0 462.4 136;" xml:space="preserve">
<style type="text/css">
	.st0{fill:#32A6CE;}
	.st1{fill:#1A80AD;}
	.st2{fill:#21789E;}
	.st3{fill:#1A5B80;}
	.st4{fill:#06435E;}
	.st5{fill:#2273AA;}
</style>
<path class="st0" d="M381.6,24c-12,0-21.6,3.2-29.6,4.8l-2.4,18.4c4-1.6,15.2-4.8,24.8-5.6c9.6,0,15.2,1.6,13.6,10.4
	c-28.8,0-48,5.6-52,24.8c-5.6,32,29.6,32.8,43.2,18.4l-1.6,8.8h25.6l11.2-52C418.4,30.4,399.2,23.2,381.6,24z M383.2,77.6
	c-1.6,6.4-7.2,8.8-13.6,9.6c-5.6,0-10.4-3.2-7.2-9.6c3.2-4.8,10.4-4.8,16-4.8c1.6,0,4,0,6.4,0C384,72,383.2,75.2,383.2,77.6z"/>
<path class="st1" d="M349.6,47.2c4-1.6,15.2-4.8,24.8-5.6c9.6,0,15.2,1.6,13.6,10.4c-28.8,0-48,5.6-52,24.8
	c-5.6,32,29.6,32.8,43.2,18.4l-1.6,8.8h25.6l11.2-52c4.8-21.6-15.2-27.2-32.8-27.2 M383.2,77.6c-1.6,6.4-7.2,8.8-13.6,9.6
	c-5.6,0-10.4-3.2-7.2-9.6c3.2-4.8,10.4-4.8,16-4.8c1.6,0,4,0,6.4,0C384,72,383.2,75.2,383.2,77.6z"/>
<polygon class="st0" points="436,0 415.2,104 440.8,104 462.4,0 "/>
<polygon class="st1" points="454.4,0 415.2,104 440.8,104 462.4,0 436,0 436,0 "/>
<path class="st0" d="M316.8,0h-47.2l-20.8,104h28l7.2-32h20c19.2,0,35.2-11.2,39.2-31.2C347.2,17.6,330.4,0,316.8,0z M316,36
	c-1.6,7.2-8.8,12-16,12h-12.8l5.6-24h13.6C313.6,24,317.6,28.8,316,36z"/>
<path class="st1" d="M316.8,0h-32L248,104h28l7.2-32h20c19.2,0,35.2-11.2,39.2-31.2C347.2,17.6,330.4,0,316.8,0z M316,36
	c-1.6,7.2-8.8,12-16,12h-12.8l5.6-24h13.6C313.6,24,317.6,28.8,316,36z"/>
<path class="st2" d="M132,24c-12,0-21.6,3.2-28.8,4.8l-2.4,18.4c3.2-1.6,15.2-4.8,24.8-5.6c9.6,0,15.2,1.6,13.6,10.4
	c-28,0-47.2,5.6-51.2,24.8c-5.6,32,28.8,32.8,42.4,18.4l-1.6,8.8h25.6l11.2-52C169.6,30.4,149.6,23.2,132,24z M134.4,77.6
	c-1.6,6.4-7.2,8.8-13.6,9.6c-5.6,0-10.4-3.2-6.4-9.6c3.2-4.8,10.4-4.8,15.2-4.8c2.4,0,4,0,6.4,0C135.2,72,134.4,75.2,134.4,77.6z"/>
<path class="st3" d="M101.6,47.2c3.2-1.6,15.2-4.8,24.8-5.6c9.6,0,15.2,1.6,13.6,10.4c-28,0-47.2,5.6-51.2,24.8
	c-5.6,32,28.8,32.8,42.4,18.4l-2.4,8.8h25.6l11.2-52c4.8-21.6-15.2-27.2-32.8-27.2 M134.4,77.6c-1.6,6.4-7.2,8.8-13.6,9.6
	c-5.6,0-10.4-3.2-6.4-9.6c3.2-4.8,10.4-4.8,15.2-4.8c2.4,0,4,0,6.4,0C135.2,72,134.4,75.2,134.4,77.6z"/>
<polygon class="st2" points="176,24 201.6,24 205.6,68.8 231.2,24 257.6,24 196.8,136 168,136 186.4,102.4 "/>
<polyline class="st3" points="201.6,25.6 205.6,69.6 231.2,24 257.6,24 196.8,136 168,136 186.4,103.2 "/>
<path class="st2" d="M68.8,0h-48L0,104h28l7.2-32h20c19.2,0,35.2-11.2,39.2-31.2C99.2,17.6,82.4,0,68.8,0z M68,36
	c-1.6,7.2-8.8,12-16,12H39.2l5.6-24h13.6C65.6,24,69.6,28.8,68,36z"/>
<path class="st3" d="M68.8,0H47.2L0,104h28l7.2-32h20c19.2,0,35.2-11.2,39.2-31.2C99.2,17.6,82.4,0,68.8,0z M68,36
	c-1.6,7.2-8.8,12-16,12H39.2l5.6-24h13.6C65.6,24,69.6,28.8,68,36z"/>
<g>
	<path class="st4" d="M127.2,52c-21.6,1.6-36,8-39.2,24c-5.6,32,28.8,32.8,42.4,18.4l-1.6,9.6h25.6l4-19.2L127.2,52z M134.4,77.6
		c-1.6,6.4-7.2,8.8-13.6,9.6c-5.6,0-10.4-3.2-6.4-9.6c3.2-4.8,10.4-4.8,15.2-4.8c2.4,0,4,0,6.4,0C135.2,72,134.4,75.2,134.4,77.6z"
		/>
	<polygon class="st4" points="207.2,68 205.6,70.4 222.4,86.4 257.6,24 231.2,24 	"/>
	<polygon class="st4" points="28,104 35.2,72 2.4,104 	"/>
</g>
<g>
	<polygon class="st5" points="276,104 283.2,70.4 283.2,71.2 250.4,104 	"/>
	<path class="st5" d="M376,52c-21.6,1.6-36,8-39.2,24c-5.6,32,29.6,32.8,43.2,18.4l-2.4,9.6h25.6l4-19.2L376,52z M383.2,77.6
		c-1.6,6.4-7.2,8.8-13.6,9.6c-5.6,0-10.4-3.2-7.2-9.6c3.2-4.8,10.4-4.8,16-4.8c1.6,0,4,0,6.4,0C384,72,383.2,75.2,383.2,77.6z"/>
	<polygon class="st5" points="433.6,56.8 415.2,104 440.8,104 448,72 	"/>
</g>
</svg>
