<?xml version="1.0" encoding="utf-8"?>
<!-- Generator: Adobe Illustrator 24.1.2, SVG Export Plug-In . SVG Version: 6.00 Build 0)  -->
<svg version="1.1" id="Layer_1" xmlns="http://www.w3.org/2000/svg" xmlns:xlink="http://www.w3.org/1999/xlink" x="0px" y="0px"
	 viewBox="0 0 20.1 19.9" style="enable-background:new 0 0 20.1 19.9;" xml:space="preserve">
<style type="text/css">
	.st0{fill-rule:evenodd;clip-rule:evenodd;fill:#010101;}
</style>
<path id="phone_icon" class="st0" d="M7.1,14.9c-2.3-2.1-4.3-4.4-5.9-7.1C0.7,7.1,0.3,6.3,0,5.4c0.1-0.7,0.3-1.3,0.6-2
	c0.3-0.7,0.7-1.3,1.1-1.9c0.9-1,1.8-1.7,2.6-1.6c1.4,0.3,2.8,2.2,3.1,3.3c0.2,0.7,0,1.4-0.4,2C6.5,5.9,6,6.5,5.6,7.2
	C5.3,7.8,5.9,8.7,6.4,9.5c0.6,0.8,1.3,1.6,2.1,2.3c1,1.1,3.2,3.1,4.5,2.4c0.7-0.3,1.3-1.3,1.9-1.6c1.3-0.6,2.7,0,4,1.2
	c0.8,0.8,1.4,1.6,1.1,2.4c-0.5,1.5-2.7,2.7-3.9,3.2c-0.5,0.2-0.9,0.4-1.4,0.5c-0.3-0.1-0.7-0.2-1-0.4C11.3,18.3,9,16.8,7.1,14.9z
	 M17.3,18.1c0.7-0.4,2.1-1.5,2.1-2.3c0-0.7-0.8-1.4-1.5-2c-0.6-0.6-1.4-0.8-2.2-0.8c-0.9,0.2-1.5,1.4-2.5,1.8
	c-1.1,0.5-2.3-0.1-3.4-1c-1.7-1.2-3.1-2.7-4.2-4.5C5.1,8.8,4.8,7.9,4.9,7.1c0.3-1,1.7-1.8,1.9-2.7c0.1-0.8-0.1-1.7-0.7-2.2
	C5.5,1.5,4.7,0.6,4,0.6C3.2,0.7,2.1,2,1.7,2.8c-0.5,0.8-0.8,1.7-1,2.6C3,10.7,9.3,17.1,14.7,19.3C15.6,19,16.5,18.6,17.3,18.1z"/>
</svg>
