<?xml version="1.0" encoding="utf-8"?>
<!-- Generator: Adobe Illustrator 24.1.2, SVG Export Plug-In . SVG Version: 6.00 Build 0)  -->
<svg version="1.1" id="Layer_1" xmlns="http://www.w3.org/2000/svg" xmlns:xlink="http://www.w3.org/1999/xlink" x="0px" y="0px"
	 viewBox="0 0 15.6 16" style="enable-background:new 0 0 15.6 16;" xml:space="preserve">
<style type="text/css">
	.st0{fill-rule:evenodd;clip-rule:evenodd;fill:#010101;}
</style>
<path id="search_icon" class="st0" d="M7,0c3.9,0,7,3.1,7,7s-3.1,7-7,7c-3.9,0-7-3.1-7-7l0,0C0,3.1,3.1,0,7,0z M7,0.8
	c3.4,0,6.2,2.8,6.2,6.2s-2.8,6.2-6.2,6.2c-3.4,0-6.2-2.8-6.2-6.2C0.8,3.6,3.6,0.8,7,0.8z M12,11.3l3.6,3.6L14.4,16l-3.6-3.6L12,11.3
	z"/>
</svg>
