<?xml version="1.0" encoding="utf-8"?>
<!-- Generator: Adobe Illustrator 24.1.2, SVG Export Plug-In . SVG Version: 6.00 Build 0)  -->
<svg version="1.1" id="Layer_1" xmlns="http://www.w3.org/2000/svg" xmlns:xlink="http://www.w3.org/1999/xlink" x="0px" y="0px"
	 viewBox="0 0 64 20.5" style="enable-background:new 0 0 64 20.5;" xml:space="preserve">
<style type="text/css">
	.st0{fill:#B73091;}
	.st1{fill:#862165;}
</style>
<path class="st0" d="M50,2l5-0.9v19.4h-5V2z M58,2v18.5h5V1.1L58,2z M43,20.5h5v-14h-5V20.5z M8.8,8.4c-0.7,0-2.2-0.1-2.2-1.5
	c0-1.6,2.2-1.6,3-1.6c1.4,0,3.3,0.4,4.6,0.8l1.5,0.5h0.2V2.1L15.7,2c-1.6-0.5-3.5-1.1-6.8-1.1C3.1,1.1,1,4.5,1,7.4
	c0,1.7,0.7,5.6,7.4,6.1c0.6,0,2.1,0.1,2.1,1.5c0,1.2-1.4,1.8-3.5,1.8c-2.3,0-4-0.6-6-1.1v4.6c2,0.5,4.4,0.8,7.1,0.8
	c5.7,0,8.3-3.2,8.3-6.4C16.4,11.1,13.6,8.8,8.8,8.4z M39.9,6.2C35.1,6.3,33,8.5,33,12.7v7.8h5v-6.3c0-2.5,0-3.6,3-3.7V6.3
	C41,6.1,39.9,6.2,39.9,6.2z M26,6.5c-0.1,0-1,2.5-3,4.9V1.1l-5,1.1v18.3h5v-5.4c2,2.3,2.4,5.4,2.4,5.4h6.4c-0.6-2-3.4-7.2-3.4-7.2
	c2.5-3.1,3.6-6.8,3.7-6.8H26z M45.5,5C46.9,5,48,3.9,48,2.5S46.9,0,45.5,0S43,1.1,43,2.5S44.1,5,45.5,5z"/>
<path class="st1" d="M52,1.6l3-0.5v19.4h-5L52,1.6z M59.8,1.7L58,20.5h5V1.1L59.8,1.7z M43,20.5h5v-14h-2.1L43,20.5z M1,7.4
	c0,1.7,0.7,5.6,7.3,6.1c0.6,0,3,0.1,3,1.5c0,1.2-2.4,1.8-4.4,1.8c-2.3,0-4-0.6-6-1.1v4.6c2,0.5,4.4,0.8,7.1,0.8
	c5.7,0,8.3-3.2,8.3-6.4c0-3.6-2.8-5.9-7.6-6.3C8,8.4,6.6,8.3,6.6,6.9c0-1.6,2.2-1.6,3-1.6c1.4,0,3.3,0.4,4.6,0.8l1.5,0.5h0.2V2.1
	L15.7,2c-1.6-0.5-3.5-1.1-6.8-1.1 M33,12.5v8h5v-6.3c0-2.5,0-3.6,3-3.7V6.3c0-0.1-1.1-0.1-1.1-0.1 M18,20.5h5v-5.4
	c2,2.3,4.3,5.4,4.3,5.4h4.4c-0.6-2-3.4-7.2-3.4-7.2c2.5-3.1,3.6-6.8,3.7-6.8h-3c-0.1,0-4,2.5-6,4.9V1.5 M45.5,5
	C46.9,5,48,3.9,48,2.5S46.9,0,45.5,0"/>
</svg>
