<?xml version="1.0" encoding="utf-8"?>
<!-- Generator: Adobe Illustrator 24.1.2, SVG Export Plug-In . SVG Version: 6.00 Build 0)  -->
<svg version="1.1" id="Layer_1" xmlns="http://www.w3.org/2000/svg" xmlns:xlink="http://www.w3.org/1999/xlink" x="0px" y="0px"
	 viewBox="0 0 16 13" style="enable-background:new 0 0 16 13;" xml:space="preserve">
<style type="text/css">
	.st0{fill-rule:evenodd;clip-rule:evenodd;}
</style>
<path id="twitter" class="st0" d="M16,1.6c-0.6,0.3-1.2,0.5-1.8,0.5c0.6-0.4,1.1-1.1,1.4-1.8c-0.6,0.4-1.3,0.6-2.1,0.7l0,0
	c-1.3-1.3-3.3-1.4-4.7-0.1c-0.7,0.6-1,1.5-1,2.4c0,0.2,0,0.5,0.1,0.7l0,0c-2.7-0.1-5.3-1.3-7-3.4C0,2.1,0.5,4,1.9,5
	C1.4,5,0.9,4.9,0.4,4.6C0.4,6.2,1.5,7.5,3,7.8C2.6,8,2.1,8,1.6,7.9c0.4,1.3,1.6,2.2,3,2.2c-1.2,1.1-2.9,1.6-4.6,1.4
	C1.6,12.5,3.3,13,5.2,13c5.1,0,9.2-4,9.3-9.1c0-0.2,0-0.4,0-0.5c0,0,0,0,0,0s0,0,0,0s0,0,0-0.1C15,2.8,15.6,2.2,16,1.6z"/>
</svg>
