<?xml version="1.0" encoding="utf-8"?>
<!-- Generator: Adobe Illustrator 24.1.2, SVG Export Plug-In . SVG Version: 6.00 Build 0)  -->
<svg version="1.1" id="Capa_1" xmlns="http://www.w3.org/2000/svg" xmlns:xlink="http://www.w3.org/1999/xlink" x="0px" y="0px"
	 viewBox="0 0 504 152.8" style="enable-background:new 0 0 504 152.8;" xml:space="preserve">
<style type="text/css">
	.st0{fill:#3C58BF;}
	.st1{fill:#293688;}
	.st2{fill:#FFBC00;}
	.st3{fill:#F7981D;}
	.st4{fill:#ED7C00;}
	.st5{fill:#051244;}
</style>
<polygon class="st0" points="184.8,148.8 210.4,4.8 250.4,4.8 225.6,148.8 "/>
<polygon class="st1" points="184.8,148.8 217.6,4.8 250.4,4.8 225.6,148.8 "/>
<path class="st0" d="M370.4,6.4c-8-3.2-20.8-6.4-36.8-6.4c-40,0-68.8,20-68.8,48.8c0,21.6,20,32.8,36,40s20.8,12,20.8,18.4
	c0,9.6-12.8,14.4-24,14.4c-16,0-24.8-2.4-38.4-8l-5.6-2.4L248,144c9.6,4,27.2,8,45.6,8c42.4,0,70.4-20,70.4-50.4
	c0-16.8-10.4-29.6-34.4-40c-14.4-7.2-23.2-11.2-23.2-18.4c0-6.4,7.2-12.8,23.2-12.8c13.6,0,23.2,2.4,30.4,5.6l4,1.6L370.4,6.4
	L370.4,6.4z"/>
<path class="st1" d="M370.4,6.4c-8-3.2-20.8-6.4-36.8-6.4c-40,0-61.6,20-61.6,48.8c0,21.6,12.8,32.8,28.8,40s20.8,12,20.8,18.4
	c0,9.6-12.8,14.4-24,14.4c-16,0-24.8-2.4-38.4-8l-5.6-2.4L248,144c9.6,4,27.2,8,45.6,8c42.4,0,70.4-20,70.4-50.4
	c0-16.8-10.4-29.6-34.4-40c-14.4-7.2-23.2-11.2-23.2-18.4c0-6.4,7.2-12.8,23.2-12.8c13.6,0,23.2,2.4,30.4,5.6l4,1.6L370.4,6.4
	L370.4,6.4z"/>
<path class="st0" d="M439.2,4.8c-9.6,0-16.8,0.8-20.8,10.4l-60,133.6h43.2l8-24h51.2l4.8,24H504l-33.6-144H439.2z M420.8,100.8
	c2.4-7.2,16-42.4,16-42.4s3.2-8.8,5.6-14.4l2.4,13.6c0,0,8,36,9.6,44h-33.6V100.8z"/>
<path class="st1" d="M448.8,4.8c-9.6,0-16.8,0.8-20.8,10.4l-69.6,133.6h43.2l8-24h51.2l4.8,24H504l-33.6-144H448.8z M420.8,100.8
	c3.2-8,16-42.4,16-42.4s3.2-8.8,5.6-14.4l2.4,13.6c0,0,8,36,9.6,44h-33.6V100.8z"/>
<path class="st0" d="M111.2,105.6l-4-20.8c-7.2-24-30.4-50.4-56-63.2l36,128h43.2l64.8-144H152L111.2,105.6z"/>
<path class="st1" d="M111.2,105.6l-4-20.8c-7.2-24-30.4-50.4-56-63.2l36,128h43.2l64.8-144H160L111.2,105.6z"/>
<path class="st2" d="M0,4.8l7.2,1.6c51.2,12,86.4,42.4,100,78.4l-14.4-68c-2.4-9.6-9.6-12-18.4-12H0z"/>
<path class="st3" d="M0,4.8L0,4.8C51.2,16.8,93.6,48,107.2,84L93.6,27.2C91.2,17.6,83.2,12,74.4,12L0,4.8z"/>
<path class="st4" d="M0,4.8L0,4.8C51.2,16.8,93.6,48,107.2,84l-9.6-31.2c-2.4-9.6-5.6-19.2-16.8-23.2L0,4.8z"/>
<g>
	<path class="st5" d="M151.2,100.8L124,73.6L111.2,104L108,84c-7.2-24-30.4-50.4-56-63.2l36,128h43.2L151.2,100.8z"/>
	<polygon class="st5" points="225.6,148.8 191.2,113.6 184.8,148.8 	"/>
	<path class="st5" d="M317.6,99.2L317.6,99.2c3.2,3.2,4.8,5.6,4,8.8c0,9.6-12.8,14.4-24,14.4c-16,0-24.8-2.4-38.4-8l-5.6-2.4
		l-5.6,32.8c9.6,4,27.2,8,45.6,8c25.6,0,46.4-7.2,58.4-20L317.6,99.2z"/>
	<path class="st5" d="M364,148.8h37.6l8-24h51.2l4.8,24H504l-13.6-58.4l-48-46.4l2.4,12.8c0,0,8,36,9.6,44h-33.6
		c3.2-8,16-42.4,16-42.4s3.2-8.8,5.6-14.4"/>
</g>
</svg>
